<mxfile host="app.diagrams.net" modified="2022-10-12T02:41:31.864Z" agent="5.0 (Windows NT 10.0; Win64; x64) AppleWebKit/537.36 (KHTML, like Gecko) Chrome/106.0.0.0 Safari/537.36 Edg/106.0.1370.37" etag="RFdqiFlgNW6Owi73pBFi" version="20.4.0" type="github">
  <diagram id="Y_lFGor3RjB1HOinJ1fB" name="框图">
    <mxGraphModel dx="1967" dy="1114" grid="1" gridSize="10" guides="1" tooltips="1" connect="1" arrows="1" fold="1" page="1" pageScale="1" pageWidth="827" pageHeight="1169" math="1" shadow="0">
      <root>
        <mxCell id="0" />
        <mxCell id="1" parent="0" />
        <mxCell id="4X7WZ7r-OvsgaBfrFV06-1" value="" style="rounded=0;whiteSpace=wrap;html=1;fillColor=none;dashed=1;strokeColor=#6c8ebf;" vertex="1" parent="1">
          <mxGeometry x="280" y="570" width="840" height="500" as="geometry" />
        </mxCell>
        <mxCell id="4X7WZ7r-OvsgaBfrFV06-2" value="$$N_1 / 2$$" style="edgeStyle=orthogonalEdgeStyle;rounded=0;orthogonalLoop=1;jettySize=auto;html=1;exitX=1;exitY=0.5;exitDx=0;exitDy=0;entryX=0;entryY=0.5;entryDx=0;entryDy=0;" edge="1" parent="1" source="4X7WZ7r-OvsgaBfrFV06-3" target="4X7WZ7r-OvsgaBfrFV06-5">
          <mxGeometry relative="1" as="geometry" />
        </mxCell>
        <mxCell id="4X7WZ7r-OvsgaBfrFV06-3" value="Golden&lt;br&gt;(ROM)" style="rounded=0;whiteSpace=wrap;html=1;" vertex="1" parent="1">
          <mxGeometry x="200" y="80" width="80" height="80" as="geometry" />
        </mxCell>
        <mxCell id="4X7WZ7r-OvsgaBfrFV06-4" value="$$N_1$$" style="edgeStyle=orthogonalEdgeStyle;rounded=0;orthogonalLoop=1;jettySize=auto;html=1;exitX=1;exitY=0.5;exitDx=0;exitDy=0;entryX=0;entryY=0.5;entryDx=0;entryDy=0;" edge="1" parent="1" source="4X7WZ7r-OvsgaBfrFV06-5" target="4X7WZ7r-OvsgaBfrFV06-7">
          <mxGeometry relative="1" as="geometry" />
        </mxCell>
        <mxCell id="4X7WZ7r-OvsgaBfrFV06-5" value="Convenc" style="rounded=0;whiteSpace=wrap;html=1;" vertex="1" parent="1">
          <mxGeometry x="360" y="80" width="80" height="80" as="geometry" />
        </mxCell>
        <mxCell id="4X7WZ7r-OvsgaBfrFV06-6" value="$$N_1$$" style="edgeStyle=orthogonalEdgeStyle;rounded=0;orthogonalLoop=1;jettySize=auto;html=1;exitX=1;exitY=0.5;exitDx=0;exitDy=0;entryX=0;entryY=0.5;entryDx=0;entryDy=0;" edge="1" parent="1" source="4X7WZ7r-OvsgaBfrFV06-7" target="4X7WZ7r-OvsgaBfrFV06-11">
          <mxGeometry relative="1" as="geometry" />
        </mxCell>
        <mxCell id="4X7WZ7r-OvsgaBfrFV06-7" value="Matrix&lt;br&gt;Interleave" style="rounded=0;whiteSpace=wrap;html=1;" vertex="1" parent="1">
          <mxGeometry x="520" y="80" width="80" height="80" as="geometry" />
        </mxCell>
        <mxCell id="4X7WZ7r-OvsgaBfrFV06-8" value="$$N_1/2$$" style="edgeStyle=orthogonalEdgeStyle;rounded=0;orthogonalLoop=1;jettySize=auto;html=1;exitX=1;exitY=0.5;exitDx=0;exitDy=0;entryX=0;entryY=0.5;entryDx=0;entryDy=0;" edge="1" parent="1" source="4X7WZ7r-OvsgaBfrFV06-9" target="4X7WZ7r-OvsgaBfrFV06-13">
          <mxGeometry relative="1" as="geometry" />
        </mxCell>
        <mxCell id="4X7WZ7r-OvsgaBfrFV06-9" value="Qammod&lt;br&gt;with Bit &amp;amp; Power Allocation" style="rounded=0;whiteSpace=wrap;html=1;" vertex="1" parent="1">
          <mxGeometry x="800" y="80" width="80" height="80" as="geometry" />
        </mxCell>
        <mxCell id="4X7WZ7r-OvsgaBfrFV06-10" value="$$N_1*2$$" style="edgeStyle=orthogonalEdgeStyle;rounded=0;orthogonalLoop=1;jettySize=auto;html=1;exitX=1;exitY=0.5;exitDx=0;exitDy=0;entryX=0;entryY=0.5;entryDx=0;entryDy=0;" edge="1" parent="1" source="4X7WZ7r-OvsgaBfrFV06-11" target="4X7WZ7r-OvsgaBfrFV06-9">
          <mxGeometry relative="1" as="geometry" />
        </mxCell>
        <mxCell id="4X7WZ7r-OvsgaBfrFV06-11" value="S2P" style="rounded=0;whiteSpace=wrap;html=1;" vertex="1" parent="1">
          <mxGeometry x="680" y="80" width="40" height="80" as="geometry" />
        </mxCell>
        <mxCell id="4X7WZ7r-OvsgaBfrFV06-12" value="$$N_1/4$$" style="edgeStyle=orthogonalEdgeStyle;rounded=0;orthogonalLoop=1;jettySize=auto;html=1;exitX=1;exitY=0.5;exitDx=0;exitDy=0;entryX=1;entryY=0.25;entryDx=0;entryDy=0;" edge="1" parent="1" source="4X7WZ7r-OvsgaBfrFV06-13" target="4X7WZ7r-OvsgaBfrFV06-17">
          <mxGeometry relative="1" as="geometry" />
        </mxCell>
        <mxCell id="4X7WZ7r-OvsgaBfrFV06-13" value="P2S" style="rounded=0;whiteSpace=wrap;html=1;" vertex="1" parent="1">
          <mxGeometry x="960" y="80" width="40" height="80" as="geometry" />
        </mxCell>
        <mxCell id="4X7WZ7r-OvsgaBfrFV06-14" value="64&lt;br&gt;COMPLEX" style="edgeStyle=orthogonalEdgeStyle;rounded=0;orthogonalLoop=1;jettySize=auto;html=1;exitX=0;exitY=0.5;exitDx=0;exitDy=0;entryX=1;entryY=0.5;entryDx=0;entryDy=0;" edge="1" parent="1" source="4X7WZ7r-OvsgaBfrFV06-15" target="4X7WZ7r-OvsgaBfrFV06-23">
          <mxGeometry relative="1" as="geometry" />
        </mxCell>
        <mxCell id="4X7WZ7r-OvsgaBfrFV06-15" value="IFFT" style="rounded=0;whiteSpace=wrap;html=1;" vertex="1" parent="1">
          <mxGeometry x="640" y="200" width="80" height="80" as="geometry" />
        </mxCell>
        <mxCell id="4X7WZ7r-OvsgaBfrFV06-16" value="64 &lt;br&gt;COMPLEX" style="edgeStyle=none;rounded=0;orthogonalLoop=1;jettySize=auto;html=1;exitX=0;exitY=0.5;exitDx=0;exitDy=0;entryX=1;entryY=0.5;entryDx=0;entryDy=0;endArrow=classic;endFill=1;" edge="1" parent="1" source="4X7WZ7r-OvsgaBfrFV06-17" target="4X7WZ7r-OvsgaBfrFV06-32">
          <mxGeometry relative="1" as="geometry" />
        </mxCell>
        <mxCell id="4X7WZ7r-OvsgaBfrFV06-17" value="Pad" style="rounded=0;whiteSpace=wrap;html=1;" vertex="1" parent="1">
          <mxGeometry x="960" y="200" width="40" height="80" as="geometry" />
        </mxCell>
        <mxCell id="4X7WZ7r-OvsgaBfrFV06-18" style="edgeStyle=orthogonalEdgeStyle;rounded=0;orthogonalLoop=1;jettySize=auto;html=1;entryX=1;entryY=0.75;entryDx=0;entryDy=0;" edge="1" parent="1" source="4X7WZ7r-OvsgaBfrFV06-19" target="4X7WZ7r-OvsgaBfrFV06-17">
          <mxGeometry relative="1" as="geometry" />
        </mxCell>
        <mxCell id="4X7WZ7r-OvsgaBfrFV06-19" value="0" style="text;html=1;align=center;verticalAlign=middle;resizable=0;points=[];autosize=1;strokeColor=none;fillColor=none;" vertex="1" parent="1">
          <mxGeometry x="1040" y="245" width="30" height="30" as="geometry" />
        </mxCell>
        <mxCell id="4X7WZ7r-OvsgaBfrFV06-20" style="rounded=0;orthogonalLoop=1;jettySize=auto;html=1;exitX=0;exitY=0.5;exitDx=0;exitDy=0;entryX=0.5;entryY=1;entryDx=0;entryDy=0;entryPerimeter=0;endArrow=none;endFill=0;" edge="1" parent="1" source="4X7WZ7r-OvsgaBfrFV06-21" target="4X7WZ7r-OvsgaBfrFV06-24">
          <mxGeometry relative="1" as="geometry" />
        </mxCell>
        <mxCell id="4X7WZ7r-OvsgaBfrFV06-21" value="+Preamble" style="rounded=0;whiteSpace=wrap;html=1;" vertex="1" parent="1">
          <mxGeometry x="200" y="200" width="80" height="80" as="geometry" />
        </mxCell>
        <mxCell id="4X7WZ7r-OvsgaBfrFV06-22" value="128&lt;br&gt;REAL" style="edgeStyle=none;rounded=0;orthogonalLoop=1;jettySize=auto;html=1;exitX=0;exitY=0.5;exitDx=0;exitDy=0;entryX=1;entryY=0.5;entryDx=0;entryDy=0;endArrow=classic;endFill=1;" edge="1" parent="1" source="4X7WZ7r-OvsgaBfrFV06-23" target="4X7WZ7r-OvsgaBfrFV06-34">
          <mxGeometry relative="1" as="geometry" />
        </mxCell>
        <mxCell id="4X7WZ7r-OvsgaBfrFV06-23" value="IFFT&lt;br&gt;Post" style="rounded=0;whiteSpace=wrap;html=1;" vertex="1" parent="1">
          <mxGeometry x="480" y="200" width="80" height="80" as="geometry" />
        </mxCell>
        <mxCell id="4X7WZ7r-OvsgaBfrFV06-24" value="" style="verticalLabelPosition=bottom;shadow=0;dashed=0;align=center;html=1;verticalAlign=top;shape=mxgraph.electrical.radio.aerial_-_antenna_1;" vertex="1" parent="1">
          <mxGeometry x="140" y="200" width="40" height="40" as="geometry" />
        </mxCell>
        <mxCell id="4X7WZ7r-OvsgaBfrFV06-25" style="rounded=0;orthogonalLoop=1;jettySize=auto;html=1;exitX=0;exitY=0.5;exitDx=0;exitDy=0;entryX=0.5;entryY=1;entryDx=0;entryDy=0;entryPerimeter=0;endArrow=none;endFill=0;" edge="1" parent="1" source="4X7WZ7r-OvsgaBfrFV06-27" target="4X7WZ7r-OvsgaBfrFV06-28">
          <mxGeometry relative="1" as="geometry" />
        </mxCell>
        <mxCell id="4X7WZ7r-OvsgaBfrFV06-26" value="$$N_2/2+5$$" style="edgeStyle=none;rounded=0;orthogonalLoop=1;jettySize=auto;html=1;exitX=1;exitY=0.5;exitDx=0;exitDy=0;entryX=0;entryY=0.5;entryDx=0;entryDy=0;endArrow=classic;endFill=1;" edge="1" parent="1" source="4X7WZ7r-OvsgaBfrFV06-27" target="4X7WZ7r-OvsgaBfrFV06-36">
          <mxGeometry relative="1" as="geometry" />
        </mxCell>
        <mxCell id="4X7WZ7r-OvsgaBfrFV06-27" value="SYNC" style="rounded=0;whiteSpace=wrap;html=1;" vertex="1" parent="1">
          <mxGeometry x="200" y="320" width="80" height="80" as="geometry" />
        </mxCell>
        <mxCell id="4X7WZ7r-OvsgaBfrFV06-28" value="" style="verticalLabelPosition=bottom;shadow=0;dashed=0;align=center;html=1;verticalAlign=top;shape=mxgraph.electrical.radio.aerial_-_antenna_1;" vertex="1" parent="1">
          <mxGeometry x="140" y="320" width="40" height="40" as="geometry" />
        </mxCell>
        <mxCell id="4X7WZ7r-OvsgaBfrFV06-29" value="64&lt;br&gt;COMPLEX" style="edgeStyle=none;rounded=0;orthogonalLoop=1;jettySize=auto;html=1;exitX=1;exitY=0.5;exitDx=0;exitDy=0;entryX=0;entryY=0.5;entryDx=0;entryDy=0;endArrow=classic;endFill=1;" edge="1" parent="1" source="4X7WZ7r-OvsgaBfrFV06-30" target="4X7WZ7r-OvsgaBfrFV06-38">
          <mxGeometry relative="1" as="geometry" />
        </mxCell>
        <mxCell id="4X7WZ7r-OvsgaBfrFV06-30" value="FFT" style="rounded=0;whiteSpace=wrap;html=1;" vertex="1" parent="1">
          <mxGeometry x="640" y="320" width="80" height="80" as="geometry" />
        </mxCell>
        <mxCell id="4X7WZ7r-OvsgaBfrFV06-31" value="64&lt;br&gt;COMPLEX" style="edgeStyle=none;rounded=0;orthogonalLoop=1;jettySize=auto;html=1;exitX=0;exitY=0.5;exitDx=0;exitDy=0;entryX=1;entryY=0.5;entryDx=0;entryDy=0;endArrow=classic;endFill=1;" edge="1" parent="1" source="4X7WZ7r-OvsgaBfrFV06-32" target="4X7WZ7r-OvsgaBfrFV06-15">
          <mxGeometry relative="1" as="geometry" />
        </mxCell>
        <mxCell id="4X7WZ7r-OvsgaBfrFV06-32" value="IFFT&lt;br&gt;Pre" style="rounded=0;whiteSpace=wrap;html=1;" vertex="1" parent="1">
          <mxGeometry x="800" y="200" width="80" height="80" as="geometry" />
        </mxCell>
        <mxCell id="4X7WZ7r-OvsgaBfrFV06-33" value="$$N_2/2+5$$" style="edgeStyle=none;rounded=0;orthogonalLoop=1;jettySize=auto;html=1;exitX=0;exitY=0.5;exitDx=0;exitDy=0;entryX=1;entryY=0.5;entryDx=0;entryDy=0;endArrow=classic;endFill=1;" edge="1" parent="1" source="4X7WZ7r-OvsgaBfrFV06-34" target="4X7WZ7r-OvsgaBfrFV06-21">
          <mxGeometry relative="1" as="geometry" />
        </mxCell>
        <mxCell id="4X7WZ7r-OvsgaBfrFV06-34" value="Ex-&lt;br&gt;tract&lt;br&gt;&amp;amp;&lt;br&gt;+CP" style="rounded=0;whiteSpace=wrap;html=1;" vertex="1" parent="1">
          <mxGeometry x="360" y="200" width="40" height="80" as="geometry" />
        </mxCell>
        <mxCell id="4X7WZ7r-OvsgaBfrFV06-35" value="128&lt;br&gt;REAL" style="edgeStyle=none;rounded=0;orthogonalLoop=1;jettySize=auto;html=1;exitX=1;exitY=0.5;exitDx=0;exitDy=0;entryX=0;entryY=0.5;entryDx=0;entryDy=0;endArrow=classic;endFill=1;" edge="1" parent="1" source="4X7WZ7r-OvsgaBfrFV06-36" target="4X7WZ7r-OvsgaBfrFV06-40">
          <mxGeometry relative="1" as="geometry" />
        </mxCell>
        <mxCell id="4X7WZ7r-OvsgaBfrFV06-36" value="-CP&lt;br&gt;&amp;amp;&lt;br&gt;Pad" style="rounded=0;whiteSpace=wrap;html=1;" vertex="1" parent="1">
          <mxGeometry x="360" y="320" width="40" height="80" as="geometry" />
        </mxCell>
        <mxCell id="4X7WZ7r-OvsgaBfrFV06-37" value="64&lt;br&gt;COMPLEX" style="edgeStyle=none;rounded=0;orthogonalLoop=1;jettySize=auto;html=1;exitX=1;exitY=0.5;exitDx=0;exitDy=0;entryX=0;entryY=0.5;entryDx=0;entryDy=0;endArrow=classic;endFill=1;" edge="1" parent="1" source="4X7WZ7r-OvsgaBfrFV06-38" target="4X7WZ7r-OvsgaBfrFV06-42">
          <mxGeometry relative="1" as="geometry" />
        </mxCell>
        <mxCell id="4X7WZ7r-OvsgaBfrFV06-38" value="FFT&lt;br&gt;Post" style="rounded=0;whiteSpace=wrap;html=1;" vertex="1" parent="1">
          <mxGeometry x="800" y="320" width="80" height="80" as="geometry" />
        </mxCell>
        <mxCell id="4X7WZ7r-OvsgaBfrFV06-39" value="64&lt;br&gt;COMPLEX" style="edgeStyle=none;rounded=0;orthogonalLoop=1;jettySize=auto;html=1;exitX=1;exitY=0.5;exitDx=0;exitDy=0;entryX=0;entryY=0.5;entryDx=0;entryDy=0;endArrow=classic;endFill=1;" edge="1" parent="1" source="4X7WZ7r-OvsgaBfrFV06-40" target="4X7WZ7r-OvsgaBfrFV06-30">
          <mxGeometry relative="1" as="geometry" />
        </mxCell>
        <mxCell id="4X7WZ7r-OvsgaBfrFV06-40" value="FFT&lt;br&gt;Pre" style="rounded=0;whiteSpace=wrap;html=1;" vertex="1" parent="1">
          <mxGeometry x="480" y="320" width="80" height="80" as="geometry" />
        </mxCell>
        <mxCell id="4X7WZ7r-OvsgaBfrFV06-41" value="$$N_1/4$$" style="edgeStyle=orthogonalEdgeStyle;rounded=0;orthogonalLoop=1;jettySize=auto;html=1;exitX=1;exitY=0.5;exitDx=0;exitDy=0;entryX=1;entryY=0.5;entryDx=0;entryDy=0;endArrow=classic;endFill=1;" edge="1" parent="1" source="4X7WZ7r-OvsgaBfrFV06-42" target="4X7WZ7r-OvsgaBfrFV06-45">
          <mxGeometry x="-0.5" relative="1" as="geometry">
            <mxPoint x="1000" y="480" as="targetPoint" />
            <Array as="points">
              <mxPoint x="1480" y="360" />
              <mxPoint x="1480" y="450" />
            </Array>
            <mxPoint as="offset" />
          </mxGeometry>
        </mxCell>
        <mxCell id="4X7WZ7r-OvsgaBfrFV06-42" value="Ex-&lt;br&gt;tract" style="rounded=0;whiteSpace=wrap;html=1;" vertex="1" parent="1">
          <mxGeometry x="960" y="320" width="40" height="80" as="geometry" />
        </mxCell>
        <mxCell id="4X7WZ7r-OvsgaBfrFV06-43" value="$$N_1/4$$" style="edgeStyle=orthogonalEdgeStyle;rounded=0;orthogonalLoop=1;jettySize=auto;html=1;exitX=0;exitY=0.25;exitDx=0;exitDy=0;entryX=1;entryY=0.5;entryDx=0;entryDy=0;endArrow=classic;endFill=1;" edge="1" parent="1" source="4X7WZ7r-OvsgaBfrFV06-45" target="4X7WZ7r-OvsgaBfrFV06-47">
          <mxGeometry relative="1" as="geometry" />
        </mxCell>
        <mxCell id="4X7WZ7r-OvsgaBfrFV06-44" value="$$N_1/4$$" style="edgeStyle=orthogonalEdgeStyle;rounded=0;orthogonalLoop=1;jettySize=auto;html=1;exitX=0;exitY=0.75;exitDx=0;exitDy=0;entryX=1;entryY=0.75;entryDx=0;entryDy=0;endArrow=classic;endFill=1;" edge="1" parent="1" source="4X7WZ7r-OvsgaBfrFV06-45" target="4X7WZ7r-OvsgaBfrFV06-51">
          <mxGeometry relative="1" as="geometry">
            <mxPoint x="1400" y="480" as="sourcePoint" />
          </mxGeometry>
        </mxCell>
        <mxCell id="4X7WZ7r-OvsgaBfrFV06-45" value="Split" style="rounded=0;whiteSpace=wrap;html=1;" vertex="1" parent="1">
          <mxGeometry x="1400" y="380" width="40" height="140" as="geometry" />
        </mxCell>
        <mxCell id="4X7WZ7r-OvsgaBfrFV06-46" value="$$N_1/4$$" style="edgeStyle=orthogonalEdgeStyle;rounded=0;orthogonalLoop=1;jettySize=auto;html=1;exitX=0;exitY=0.5;exitDx=0;exitDy=0;entryX=1;entryY=0.25;entryDx=0;entryDy=0;endArrow=classic;endFill=1;" edge="1" parent="1" source="4X7WZ7r-OvsgaBfrFV06-47" target="4X7WZ7r-OvsgaBfrFV06-51">
          <mxGeometry relative="1" as="geometry">
            <mxPoint x="1240" y="420" as="sourcePoint" />
          </mxGeometry>
        </mxCell>
        <mxCell id="4X7WZ7r-OvsgaBfrFV06-47" value="Channel&lt;br&gt;Estimation" style="rounded=0;whiteSpace=wrap;html=1;" vertex="1" parent="1">
          <mxGeometry x="1260" y="380" width="80" height="80" as="geometry" />
        </mxCell>
        <mxCell id="4X7WZ7r-OvsgaBfrFV06-48" value="$$N_1/4$$" style="edgeStyle=orthogonalEdgeStyle;rounded=0;orthogonalLoop=1;jettySize=auto;html=1;exitX=0;exitY=0.5;exitDx=0;exitDy=0;entryX=1;entryY=0.5;entryDx=0;entryDy=0;endArrow=classic;endFill=1;" edge="1" parent="1" source="4X7WZ7r-OvsgaBfrFV06-51" target="4X7WZ7r-OvsgaBfrFV06-53">
          <mxGeometry relative="1" as="geometry" />
        </mxCell>
        <mxCell id="4X7WZ7r-OvsgaBfrFV06-49" style="edgeStyle=orthogonalEdgeStyle;rounded=0;orthogonalLoop=1;jettySize=auto;html=1;exitX=0;exitY=0.5;exitDx=0;exitDy=0;entryX=1;entryY=0.5;entryDx=0;entryDy=0;endArrow=classic;endFill=1;" edge="1" parent="1" source="4X7WZ7r-OvsgaBfrFV06-51" target="4X7WZ7r-OvsgaBfrFV06-111">
          <mxGeometry relative="1" as="geometry" />
        </mxCell>
        <mxCell id="4X7WZ7r-OvsgaBfrFV06-50" style="edgeStyle=orthogonalEdgeStyle;rounded=0;orthogonalLoop=1;jettySize=auto;html=1;exitX=0;exitY=0.5;exitDx=0;exitDy=0;entryX=1;entryY=0.5;entryDx=0;entryDy=0;endArrow=classic;endFill=1;" edge="1" parent="1" source="4X7WZ7r-OvsgaBfrFV06-51" target="4X7WZ7r-OvsgaBfrFV06-157">
          <mxGeometry relative="1" as="geometry" />
        </mxCell>
        <mxCell id="4X7WZ7r-OvsgaBfrFV06-51" value="Channel&lt;br&gt;Equalization" style="rounded=0;whiteSpace=wrap;html=1;" vertex="1" parent="1">
          <mxGeometry x="1120" y="440" width="80" height="80" as="geometry" />
        </mxCell>
        <mxCell id="4X7WZ7r-OvsgaBfrFV06-52" value="$$N_1/2$$" style="edgeStyle=orthogonalEdgeStyle;rounded=0;orthogonalLoop=1;jettySize=auto;html=1;exitX=0;exitY=0.5;exitDx=0;exitDy=0;entryX=1;entryY=0.5;entryDx=0;entryDy=0;endArrow=classic;endFill=1;" edge="1" parent="1" source="4X7WZ7r-OvsgaBfrFV06-53" target="4X7WZ7r-OvsgaBfrFV06-56">
          <mxGeometry relative="1" as="geometry" />
        </mxCell>
        <mxCell id="4X7WZ7r-OvsgaBfrFV06-53" value="S2P" style="rounded=0;whiteSpace=wrap;html=1;" vertex="1" parent="1">
          <mxGeometry x="960" y="440" width="40" height="80" as="geometry" />
        </mxCell>
        <mxCell id="4X7WZ7r-OvsgaBfrFV06-54" value="$$N_1 \approx 128$$" style="text;html=1;align=center;verticalAlign=middle;resizable=0;points=[];autosize=1;strokeColor=none;fillColor=none;" vertex="1" parent="1">
          <mxGeometry x="170" y="40" width="140" height="30" as="geometry" />
        </mxCell>
        <mxCell id="4X7WZ7r-OvsgaBfrFV06-55" value="$$N_1*2$$" style="edgeStyle=orthogonalEdgeStyle;rounded=0;orthogonalLoop=1;jettySize=auto;html=1;exitX=0;exitY=0.5;exitDx=0;exitDy=0;entryX=1;entryY=0.5;entryDx=0;entryDy=0;endArrow=classic;endFill=1;" edge="1" parent="1" source="4X7WZ7r-OvsgaBfrFV06-56" target="4X7WZ7r-OvsgaBfrFV06-58">
          <mxGeometry relative="1" as="geometry" />
        </mxCell>
        <mxCell id="4X7WZ7r-OvsgaBfrFV06-56" value="Qamdemod&lt;br&gt;with Bit &amp;amp; Power Allocation" style="rounded=0;whiteSpace=wrap;html=1;" vertex="1" parent="1">
          <mxGeometry x="800" y="440" width="80" height="80" as="geometry" />
        </mxCell>
        <mxCell id="4X7WZ7r-OvsgaBfrFV06-57" value="$$N_1$$" style="edgeStyle=orthogonalEdgeStyle;rounded=0;orthogonalLoop=1;jettySize=auto;html=1;exitX=0;exitY=0.5;exitDx=0;exitDy=0;entryX=1;entryY=0.5;entryDx=0;entryDy=0;endArrow=classic;endFill=1;" edge="1" parent="1" source="4X7WZ7r-OvsgaBfrFV06-58" target="4X7WZ7r-OvsgaBfrFV06-60">
          <mxGeometry relative="1" as="geometry" />
        </mxCell>
        <mxCell id="4X7WZ7r-OvsgaBfrFV06-58" value="P2S" style="rounded=0;whiteSpace=wrap;html=1;" vertex="1" parent="1">
          <mxGeometry x="680" y="440" width="40" height="80" as="geometry" />
        </mxCell>
        <mxCell id="4X7WZ7r-OvsgaBfrFV06-59" value="$$N_1$$" style="edgeStyle=orthogonalEdgeStyle;rounded=0;orthogonalLoop=1;jettySize=auto;html=1;exitX=0;exitY=0.5;exitDx=0;exitDy=0;entryX=1;entryY=0.5;entryDx=0;entryDy=0;endArrow=classic;endFill=1;" edge="1" parent="1" source="4X7WZ7r-OvsgaBfrFV06-60" target="4X7WZ7r-OvsgaBfrFV06-63">
          <mxGeometry relative="1" as="geometry" />
        </mxCell>
        <mxCell id="4X7WZ7r-OvsgaBfrFV06-60" value="Matrix&lt;br&gt;Deinterleave" style="rounded=0;whiteSpace=wrap;html=1;" vertex="1" parent="1">
          <mxGeometry x="520" y="440" width="80" height="80" as="geometry" />
        </mxCell>
        <mxCell id="4X7WZ7r-OvsgaBfrFV06-61" style="edgeStyle=orthogonalEdgeStyle;rounded=0;orthogonalLoop=1;jettySize=auto;html=1;exitX=0;exitY=0.5;exitDx=0;exitDy=0;entryX=1;entryY=0.5;entryDx=0;entryDy=0;endArrow=classic;endFill=1;" edge="1" parent="1" source="4X7WZ7r-OvsgaBfrFV06-63" target="4X7WZ7r-OvsgaBfrFV06-64">
          <mxGeometry relative="1" as="geometry" />
        </mxCell>
        <mxCell id="4X7WZ7r-OvsgaBfrFV06-62" value="$$N_1/2$$" style="edgeStyle=orthogonalEdgeStyle;rounded=0;orthogonalLoop=1;jettySize=auto;html=1;exitX=0.5;exitY=1;exitDx=0;exitDy=0;entryX=0.5;entryY=0;entryDx=0;entryDy=0;endArrow=classic;endFill=1;" edge="1" parent="1" source="4X7WZ7r-OvsgaBfrFV06-63" target="4X7WZ7r-OvsgaBfrFV06-66">
          <mxGeometry relative="1" as="geometry" />
        </mxCell>
        <mxCell id="4X7WZ7r-OvsgaBfrFV06-63" value="Vitdec" style="rounded=0;whiteSpace=wrap;html=1;" vertex="1" parent="1">
          <mxGeometry x="360" y="440" width="80" height="80" as="geometry" />
        </mxCell>
        <mxCell id="4X7WZ7r-OvsgaBfrFV06-64" value="iter0" style="rounded=0;whiteSpace=wrap;html=1;" vertex="1" parent="1">
          <mxGeometry x="200" y="440" width="80" height="80" as="geometry" />
        </mxCell>
        <mxCell id="4X7WZ7r-OvsgaBfrFV06-65" value="$$N_1$$" style="edgeStyle=orthogonalEdgeStyle;rounded=0;orthogonalLoop=1;jettySize=auto;html=1;exitX=1;exitY=0.5;exitDx=0;exitDy=0;entryX=0;entryY=0.5;entryDx=0;entryDy=0;" edge="1" parent="1" source="4X7WZ7r-OvsgaBfrFV06-66" target="4X7WZ7r-OvsgaBfrFV06-68">
          <mxGeometry relative="1" as="geometry" />
        </mxCell>
        <mxCell id="4X7WZ7r-OvsgaBfrFV06-66" value="Convenc" style="rounded=0;whiteSpace=wrap;html=1;" vertex="1" parent="1">
          <mxGeometry x="360" y="600" width="80" height="80" as="geometry" />
        </mxCell>
        <mxCell id="4X7WZ7r-OvsgaBfrFV06-67" value="$$N_1$$" style="edgeStyle=orthogonalEdgeStyle;rounded=0;orthogonalLoop=1;jettySize=auto;html=1;exitX=1;exitY=0.5;exitDx=0;exitDy=0;entryX=0;entryY=0.5;entryDx=0;entryDy=0;" edge="1" parent="1" source="4X7WZ7r-OvsgaBfrFV06-68" target="4X7WZ7r-OvsgaBfrFV06-72">
          <mxGeometry relative="1" as="geometry" />
        </mxCell>
        <mxCell id="4X7WZ7r-OvsgaBfrFV06-68" value="Matrix&lt;br&gt;Interleave" style="rounded=0;whiteSpace=wrap;html=1;" vertex="1" parent="1">
          <mxGeometry x="520" y="600" width="80" height="80" as="geometry" />
        </mxCell>
        <mxCell id="4X7WZ7r-OvsgaBfrFV06-69" value="$$N_1/2$$" style="edgeStyle=orthogonalEdgeStyle;rounded=0;orthogonalLoop=1;jettySize=auto;html=1;exitX=1;exitY=0.5;exitDx=0;exitDy=0;entryX=0;entryY=0.5;entryDx=0;entryDy=0;" edge="1" parent="1" source="4X7WZ7r-OvsgaBfrFV06-70" target="4X7WZ7r-OvsgaBfrFV06-75">
          <mxGeometry relative="1" as="geometry" />
        </mxCell>
        <mxCell id="4X7WZ7r-OvsgaBfrFV06-70" value="Qammod&lt;br&gt;with Bit &amp;amp; Power Allocation" style="rounded=0;whiteSpace=wrap;html=1;" vertex="1" parent="1">
          <mxGeometry x="800" y="600" width="80" height="80" as="geometry" />
        </mxCell>
        <mxCell id="4X7WZ7r-OvsgaBfrFV06-71" value="$$N_1*2$$" style="edgeStyle=orthogonalEdgeStyle;rounded=0;orthogonalLoop=1;jettySize=auto;html=1;exitX=1;exitY=0.5;exitDx=0;exitDy=0;entryX=0;entryY=0.5;entryDx=0;entryDy=0;" edge="1" parent="1" source="4X7WZ7r-OvsgaBfrFV06-72" target="4X7WZ7r-OvsgaBfrFV06-70">
          <mxGeometry relative="1" as="geometry" />
        </mxCell>
        <mxCell id="4X7WZ7r-OvsgaBfrFV06-72" value="S2P" style="rounded=0;whiteSpace=wrap;html=1;" vertex="1" parent="1">
          <mxGeometry x="680" y="600" width="40" height="80" as="geometry" />
        </mxCell>
        <mxCell id="4X7WZ7r-OvsgaBfrFV06-73" value="$$N_1/4$$" style="edgeStyle=orthogonalEdgeStyle;rounded=0;orthogonalLoop=1;jettySize=auto;html=1;exitX=1;exitY=0.5;exitDx=0;exitDy=0;entryX=1;entryY=0.25;entryDx=0;entryDy=0;" edge="1" parent="1" source="4X7WZ7r-OvsgaBfrFV06-75" target="4X7WZ7r-OvsgaBfrFV06-79">
          <mxGeometry relative="1" as="geometry" />
        </mxCell>
        <mxCell id="4X7WZ7r-OvsgaBfrFV06-74" style="edgeStyle=orthogonalEdgeStyle;rounded=0;orthogonalLoop=1;jettySize=auto;html=1;exitX=1;exitY=0.5;exitDx=0;exitDy=0;entryX=0.75;entryY=0;entryDx=0;entryDy=0;endArrow=classic;endFill=1;" edge="1" parent="1" source="4X7WZ7r-OvsgaBfrFV06-75" target="4X7WZ7r-OvsgaBfrFV06-111">
          <mxGeometry relative="1" as="geometry" />
        </mxCell>
        <mxCell id="4X7WZ7r-OvsgaBfrFV06-75" value="P2S" style="rounded=0;whiteSpace=wrap;html=1;" vertex="1" parent="1">
          <mxGeometry x="960" y="600" width="40" height="80" as="geometry" />
        </mxCell>
        <mxCell id="4X7WZ7r-OvsgaBfrFV06-76" value="64&lt;br&gt;COMPLEX" style="edgeStyle=orthogonalEdgeStyle;rounded=0;orthogonalLoop=1;jettySize=auto;html=1;exitX=0;exitY=0.5;exitDx=0;exitDy=0;entryX=1;entryY=0.5;entryDx=0;entryDy=0;" edge="1" parent="1" source="4X7WZ7r-OvsgaBfrFV06-77" target="4X7WZ7r-OvsgaBfrFV06-83">
          <mxGeometry relative="1" as="geometry" />
        </mxCell>
        <mxCell id="4X7WZ7r-OvsgaBfrFV06-77" value="IFFT" style="rounded=0;whiteSpace=wrap;html=1;" vertex="1" parent="1">
          <mxGeometry x="640" y="720" width="80" height="80" as="geometry" />
        </mxCell>
        <mxCell id="4X7WZ7r-OvsgaBfrFV06-78" value="64 &lt;br&gt;COMPLEX" style="edgeStyle=none;rounded=0;orthogonalLoop=1;jettySize=auto;html=1;exitX=0;exitY=0.5;exitDx=0;exitDy=0;entryX=1;entryY=0.5;entryDx=0;entryDy=0;endArrow=classic;endFill=1;" edge="1" parent="1" source="4X7WZ7r-OvsgaBfrFV06-79" target="4X7WZ7r-OvsgaBfrFV06-85">
          <mxGeometry relative="1" as="geometry" />
        </mxCell>
        <mxCell id="4X7WZ7r-OvsgaBfrFV06-79" value="Pad" style="rounded=0;whiteSpace=wrap;html=1;" vertex="1" parent="1">
          <mxGeometry x="960" y="720" width="40" height="80" as="geometry" />
        </mxCell>
        <mxCell id="4X7WZ7r-OvsgaBfrFV06-80" style="edgeStyle=orthogonalEdgeStyle;rounded=0;orthogonalLoop=1;jettySize=auto;html=1;entryX=1;entryY=0.75;entryDx=0;entryDy=0;" edge="1" parent="1" source="4X7WZ7r-OvsgaBfrFV06-81" target="4X7WZ7r-OvsgaBfrFV06-79">
          <mxGeometry relative="1" as="geometry" />
        </mxCell>
        <mxCell id="4X7WZ7r-OvsgaBfrFV06-81" value="0" style="text;html=1;align=center;verticalAlign=middle;resizable=0;points=[];autosize=1;strokeColor=none;fillColor=none;" vertex="1" parent="1">
          <mxGeometry x="1040" y="765" width="30" height="30" as="geometry" />
        </mxCell>
        <mxCell id="4X7WZ7r-OvsgaBfrFV06-82" value="128&lt;br&gt;REAL" style="edgeStyle=none;rounded=0;orthogonalLoop=1;jettySize=auto;html=1;exitX=0;exitY=0.5;exitDx=0;exitDy=0;entryX=1;entryY=0.5;entryDx=0;entryDy=0;endArrow=classic;endFill=1;" edge="1" parent="1" source="4X7WZ7r-OvsgaBfrFV06-83" target="4X7WZ7r-OvsgaBfrFV06-87">
          <mxGeometry relative="1" as="geometry" />
        </mxCell>
        <mxCell id="4X7WZ7r-OvsgaBfrFV06-83" value="IFFT&lt;br&gt;Post" style="rounded=0;whiteSpace=wrap;html=1;" vertex="1" parent="1">
          <mxGeometry x="480" y="720" width="80" height="80" as="geometry" />
        </mxCell>
        <mxCell id="4X7WZ7r-OvsgaBfrFV06-84" value="64&lt;br&gt;COMPLEX" style="edgeStyle=none;rounded=0;orthogonalLoop=1;jettySize=auto;html=1;exitX=0;exitY=0.5;exitDx=0;exitDy=0;entryX=1;entryY=0.5;entryDx=0;entryDy=0;endArrow=classic;endFill=1;" edge="1" parent="1" source="4X7WZ7r-OvsgaBfrFV06-85" target="4X7WZ7r-OvsgaBfrFV06-77">
          <mxGeometry relative="1" as="geometry" />
        </mxCell>
        <mxCell id="4X7WZ7r-OvsgaBfrFV06-85" value="IFFT&lt;br&gt;Pre" style="rounded=0;whiteSpace=wrap;html=1;" vertex="1" parent="1">
          <mxGeometry x="800" y="720" width="80" height="80" as="geometry" />
        </mxCell>
        <mxCell id="4X7WZ7r-OvsgaBfrFV06-86" value="$$N_2/2+5$$" style="edgeStyle=orthogonalEdgeStyle;rounded=0;orthogonalLoop=1;jettySize=auto;html=1;exitX=0;exitY=0.5;exitDx=0;exitDy=0;entryX=0;entryY=0.5;entryDx=0;entryDy=0;endArrow=classic;endFill=1;" edge="1" parent="1" source="4X7WZ7r-OvsgaBfrFV06-87" target="4X7WZ7r-OvsgaBfrFV06-91">
          <mxGeometry relative="1" as="geometry" />
        </mxCell>
        <mxCell id="4X7WZ7r-OvsgaBfrFV06-87" value="Ex-&lt;br&gt;tract&lt;br&gt;&amp;amp;&lt;br&gt;+CP" style="rounded=0;whiteSpace=wrap;html=1;" vertex="1" parent="1">
          <mxGeometry x="360" y="720" width="40" height="80" as="geometry" />
        </mxCell>
        <mxCell id="4X7WZ7r-OvsgaBfrFV06-88" value="64&lt;br&gt;COMPLEX" style="edgeStyle=none;rounded=0;orthogonalLoop=1;jettySize=auto;html=1;exitX=1;exitY=0.5;exitDx=0;exitDy=0;entryX=0;entryY=0.5;entryDx=0;entryDy=0;endArrow=classic;endFill=1;" edge="1" parent="1" source="4X7WZ7r-OvsgaBfrFV06-89" target="4X7WZ7r-OvsgaBfrFV06-93">
          <mxGeometry relative="1" as="geometry" />
        </mxCell>
        <mxCell id="4X7WZ7r-OvsgaBfrFV06-89" value="FFT" style="rounded=0;whiteSpace=wrap;html=1;" vertex="1" parent="1">
          <mxGeometry x="640" y="840" width="80" height="80" as="geometry" />
        </mxCell>
        <mxCell id="4X7WZ7r-OvsgaBfrFV06-90" value="128&lt;br&gt;REAL" style="edgeStyle=none;rounded=0;orthogonalLoop=1;jettySize=auto;html=1;exitX=1;exitY=0.5;exitDx=0;exitDy=0;entryX=0;entryY=0.5;entryDx=0;entryDy=0;endArrow=classic;endFill=1;" edge="1" parent="1" source="4X7WZ7r-OvsgaBfrFV06-91" target="4X7WZ7r-OvsgaBfrFV06-95">
          <mxGeometry relative="1" as="geometry" />
        </mxCell>
        <mxCell id="4X7WZ7r-OvsgaBfrFV06-91" value="-CP&lt;br&gt;&amp;amp;&lt;br&gt;Pad" style="rounded=0;whiteSpace=wrap;html=1;" vertex="1" parent="1">
          <mxGeometry x="360" y="840" width="40" height="80" as="geometry" />
        </mxCell>
        <mxCell id="4X7WZ7r-OvsgaBfrFV06-92" value="64&lt;br&gt;COMPLEX" style="edgeStyle=none;rounded=0;orthogonalLoop=1;jettySize=auto;html=1;exitX=1;exitY=0.5;exitDx=0;exitDy=0;entryX=0;entryY=0.5;entryDx=0;entryDy=0;endArrow=classic;endFill=1;" edge="1" parent="1" source="4X7WZ7r-OvsgaBfrFV06-93" target="4X7WZ7r-OvsgaBfrFV06-97">
          <mxGeometry relative="1" as="geometry" />
        </mxCell>
        <mxCell id="4X7WZ7r-OvsgaBfrFV06-93" value="FFT&lt;br&gt;Post" style="rounded=0;whiteSpace=wrap;html=1;" vertex="1" parent="1">
          <mxGeometry x="800" y="840" width="80" height="80" as="geometry" />
        </mxCell>
        <mxCell id="4X7WZ7r-OvsgaBfrFV06-94" value="64&lt;br&gt;COMPLEX" style="edgeStyle=none;rounded=0;orthogonalLoop=1;jettySize=auto;html=1;exitX=1;exitY=0.5;exitDx=0;exitDy=0;entryX=0;entryY=0.5;entryDx=0;entryDy=0;endArrow=classic;endFill=1;" edge="1" parent="1" source="4X7WZ7r-OvsgaBfrFV06-95" target="4X7WZ7r-OvsgaBfrFV06-89">
          <mxGeometry relative="1" as="geometry" />
        </mxCell>
        <mxCell id="4X7WZ7r-OvsgaBfrFV06-95" value="FFT&lt;br&gt;Pre" style="rounded=0;whiteSpace=wrap;html=1;" vertex="1" parent="1">
          <mxGeometry x="480" y="840" width="80" height="80" as="geometry" />
        </mxCell>
        <mxCell id="4X7WZ7r-OvsgaBfrFV06-96" style="edgeStyle=orthogonalEdgeStyle;rounded=0;orthogonalLoop=1;jettySize=auto;html=1;exitX=1;exitY=0.5;exitDx=0;exitDy=0;entryX=0.25;entryY=0;entryDx=0;entryDy=0;endArrow=classic;endFill=1;" edge="1" parent="1" source="4X7WZ7r-OvsgaBfrFV06-97" target="4X7WZ7r-OvsgaBfrFV06-111">
          <mxGeometry relative="1" as="geometry" />
        </mxCell>
        <mxCell id="4X7WZ7r-OvsgaBfrFV06-97" value="Ex-&lt;br&gt;tract" style="rounded=0;whiteSpace=wrap;html=1;" vertex="1" parent="1">
          <mxGeometry x="960" y="840" width="40" height="80" as="geometry" />
        </mxCell>
        <mxCell id="4X7WZ7r-OvsgaBfrFV06-98" value="$$N_1/2$$" style="edgeStyle=orthogonalEdgeStyle;rounded=0;orthogonalLoop=1;jettySize=auto;html=1;exitX=0;exitY=0.5;exitDx=0;exitDy=0;entryX=1;entryY=0.5;entryDx=0;entryDy=0;endArrow=classic;endFill=1;" edge="1" parent="1" source="4X7WZ7r-OvsgaBfrFV06-99" target="4X7WZ7r-OvsgaBfrFV06-101">
          <mxGeometry relative="1" as="geometry" />
        </mxCell>
        <mxCell id="4X7WZ7r-OvsgaBfrFV06-99" value="S2P" style="rounded=0;whiteSpace=wrap;html=1;" vertex="1" parent="1">
          <mxGeometry x="960" y="960" width="40" height="80" as="geometry" />
        </mxCell>
        <mxCell id="4X7WZ7r-OvsgaBfrFV06-100" value="$$N_1*2$$" style="edgeStyle=orthogonalEdgeStyle;rounded=0;orthogonalLoop=1;jettySize=auto;html=1;exitX=0;exitY=0.5;exitDx=0;exitDy=0;entryX=1;entryY=0.5;entryDx=0;entryDy=0;endArrow=classic;endFill=1;" edge="1" parent="1" source="4X7WZ7r-OvsgaBfrFV06-101" target="4X7WZ7r-OvsgaBfrFV06-103">
          <mxGeometry relative="1" as="geometry" />
        </mxCell>
        <mxCell id="4X7WZ7r-OvsgaBfrFV06-101" value="Qamdemod&lt;br&gt;with Bit &amp;amp; Power Allocation" style="rounded=0;whiteSpace=wrap;html=1;" vertex="1" parent="1">
          <mxGeometry x="800" y="960" width="80" height="80" as="geometry" />
        </mxCell>
        <mxCell id="4X7WZ7r-OvsgaBfrFV06-102" value="$$N_1$$" style="edgeStyle=orthogonalEdgeStyle;rounded=0;orthogonalLoop=1;jettySize=auto;html=1;exitX=0;exitY=0.5;exitDx=0;exitDy=0;entryX=1;entryY=0.5;entryDx=0;entryDy=0;endArrow=classic;endFill=1;" edge="1" parent="1" source="4X7WZ7r-OvsgaBfrFV06-103" target="4X7WZ7r-OvsgaBfrFV06-105">
          <mxGeometry relative="1" as="geometry" />
        </mxCell>
        <mxCell id="4X7WZ7r-OvsgaBfrFV06-103" value="P2S" style="rounded=0;whiteSpace=wrap;html=1;" vertex="1" parent="1">
          <mxGeometry x="680" y="960" width="40" height="80" as="geometry" />
        </mxCell>
        <mxCell id="4X7WZ7r-OvsgaBfrFV06-104" value="$$N_1$$" style="edgeStyle=orthogonalEdgeStyle;rounded=0;orthogonalLoop=1;jettySize=auto;html=1;exitX=0;exitY=0.5;exitDx=0;exitDy=0;entryX=1;entryY=0.5;entryDx=0;entryDy=0;endArrow=classic;endFill=1;" edge="1" parent="1" source="4X7WZ7r-OvsgaBfrFV06-105" target="4X7WZ7r-OvsgaBfrFV06-108">
          <mxGeometry relative="1" as="geometry" />
        </mxCell>
        <mxCell id="4X7WZ7r-OvsgaBfrFV06-105" value="Matrix&lt;br&gt;Deinterleave" style="rounded=0;whiteSpace=wrap;html=1;" vertex="1" parent="1">
          <mxGeometry x="520" y="960" width="80" height="80" as="geometry" />
        </mxCell>
        <mxCell id="4X7WZ7r-OvsgaBfrFV06-106" value="$$N_1/2$$" style="edgeStyle=orthogonalEdgeStyle;rounded=0;orthogonalLoop=1;jettySize=auto;html=1;exitX=0.5;exitY=1;exitDx=0;exitDy=0;entryX=0.5;entryY=0;entryDx=0;entryDy=0;endArrow=classic;endFill=1;" edge="1" parent="1" source="4X7WZ7r-OvsgaBfrFV06-108" target="4X7WZ7r-OvsgaBfrFV06-114">
          <mxGeometry relative="1" as="geometry" />
        </mxCell>
        <mxCell id="4X7WZ7r-OvsgaBfrFV06-107" style="edgeStyle=orthogonalEdgeStyle;rounded=0;orthogonalLoop=1;jettySize=auto;html=1;exitX=0;exitY=0.5;exitDx=0;exitDy=0;entryX=1;entryY=0.5;entryDx=0;entryDy=0;endArrow=classic;endFill=1;" edge="1" parent="1" source="4X7WZ7r-OvsgaBfrFV06-108" target="4X7WZ7r-OvsgaBfrFV06-158">
          <mxGeometry relative="1" as="geometry" />
        </mxCell>
        <mxCell id="4X7WZ7r-OvsgaBfrFV06-108" value="Vitdec" style="rounded=0;whiteSpace=wrap;html=1;" vertex="1" parent="1">
          <mxGeometry x="360" y="960" width="80" height="80" as="geometry" />
        </mxCell>
        <mxCell id="4X7WZ7r-OvsgaBfrFV06-109" value="extra iteration" style="text;html=1;align=center;verticalAlign=middle;resizable=0;points=[];autosize=1;strokeColor=none;fillColor=none;" vertex="1" parent="1">
          <mxGeometry x="160" y="805" width="100" height="30" as="geometry" />
        </mxCell>
        <mxCell id="4X7WZ7r-OvsgaBfrFV06-110" style="edgeStyle=orthogonalEdgeStyle;rounded=0;orthogonalLoop=1;jettySize=auto;html=1;exitX=0.5;exitY=1;exitDx=0;exitDy=0;entryX=1;entryY=0.5;entryDx=0;entryDy=0;endArrow=classic;endFill=1;" edge="1" parent="1" source="4X7WZ7r-OvsgaBfrFV06-111" target="4X7WZ7r-OvsgaBfrFV06-99">
          <mxGeometry relative="1" as="geometry" />
        </mxCell>
        <mxCell id="4X7WZ7r-OvsgaBfrFV06-111" value="Diff" style="rounded=0;whiteSpace=wrap;html=1;" vertex="1" parent="1">
          <mxGeometry x="1040" y="900" width="40" height="80" as="geometry" />
        </mxCell>
        <mxCell id="4X7WZ7r-OvsgaBfrFV06-112" value="" style="rounded=0;whiteSpace=wrap;html=1;fillColor=none;dashed=1;strokeColor=#6c8ebf;" vertex="1" parent="1">
          <mxGeometry x="280" y="1090" width="840" height="500" as="geometry" />
        </mxCell>
        <mxCell id="4X7WZ7r-OvsgaBfrFV06-113" value="$$N_1$$" style="edgeStyle=orthogonalEdgeStyle;rounded=0;orthogonalLoop=1;jettySize=auto;html=1;exitX=1;exitY=0.5;exitDx=0;exitDy=0;entryX=0;entryY=0.5;entryDx=0;entryDy=0;" edge="1" parent="1" source="4X7WZ7r-OvsgaBfrFV06-114" target="4X7WZ7r-OvsgaBfrFV06-116">
          <mxGeometry relative="1" as="geometry" />
        </mxCell>
        <mxCell id="4X7WZ7r-OvsgaBfrFV06-114" value="Convenc" style="rounded=0;whiteSpace=wrap;html=1;" vertex="1" parent="1">
          <mxGeometry x="360" y="1120" width="80" height="80" as="geometry" />
        </mxCell>
        <mxCell id="4X7WZ7r-OvsgaBfrFV06-115" value="$$N_1$$" style="edgeStyle=orthogonalEdgeStyle;rounded=0;orthogonalLoop=1;jettySize=auto;html=1;exitX=1;exitY=0.5;exitDx=0;exitDy=0;entryX=0;entryY=0.5;entryDx=0;entryDy=0;" edge="1" parent="1" source="4X7WZ7r-OvsgaBfrFV06-116" target="4X7WZ7r-OvsgaBfrFV06-120">
          <mxGeometry relative="1" as="geometry" />
        </mxCell>
        <mxCell id="4X7WZ7r-OvsgaBfrFV06-116" value="Matrix&lt;br&gt;Interleave" style="rounded=0;whiteSpace=wrap;html=1;" vertex="1" parent="1">
          <mxGeometry x="520" y="1120" width="80" height="80" as="geometry" />
        </mxCell>
        <mxCell id="4X7WZ7r-OvsgaBfrFV06-117" value="$$N_1/2$$" style="edgeStyle=orthogonalEdgeStyle;rounded=0;orthogonalLoop=1;jettySize=auto;html=1;exitX=1;exitY=0.5;exitDx=0;exitDy=0;entryX=0;entryY=0.5;entryDx=0;entryDy=0;" edge="1" parent="1" source="4X7WZ7r-OvsgaBfrFV06-118" target="4X7WZ7r-OvsgaBfrFV06-123">
          <mxGeometry relative="1" as="geometry" />
        </mxCell>
        <mxCell id="4X7WZ7r-OvsgaBfrFV06-118" value="Qammod&lt;br&gt;with Bit &amp;amp; Power Allocation" style="rounded=0;whiteSpace=wrap;html=1;" vertex="1" parent="1">
          <mxGeometry x="800" y="1120" width="80" height="80" as="geometry" />
        </mxCell>
        <mxCell id="4X7WZ7r-OvsgaBfrFV06-119" value="$$N_1*2$$" style="edgeStyle=orthogonalEdgeStyle;rounded=0;orthogonalLoop=1;jettySize=auto;html=1;exitX=1;exitY=0.5;exitDx=0;exitDy=0;entryX=0;entryY=0.5;entryDx=0;entryDy=0;" edge="1" parent="1" source="4X7WZ7r-OvsgaBfrFV06-120" target="4X7WZ7r-OvsgaBfrFV06-118">
          <mxGeometry relative="1" as="geometry" />
        </mxCell>
        <mxCell id="4X7WZ7r-OvsgaBfrFV06-120" value="S2P" style="rounded=0;whiteSpace=wrap;html=1;" vertex="1" parent="1">
          <mxGeometry x="680" y="1120" width="40" height="80" as="geometry" />
        </mxCell>
        <mxCell id="4X7WZ7r-OvsgaBfrFV06-121" value="$$N_1/4$$" style="edgeStyle=orthogonalEdgeStyle;rounded=0;orthogonalLoop=1;jettySize=auto;html=1;exitX=1;exitY=0.5;exitDx=0;exitDy=0;entryX=1;entryY=0.25;entryDx=0;entryDy=0;" edge="1" parent="1" source="4X7WZ7r-OvsgaBfrFV06-123" target="4X7WZ7r-OvsgaBfrFV06-127">
          <mxGeometry relative="1" as="geometry" />
        </mxCell>
        <mxCell id="4X7WZ7r-OvsgaBfrFV06-122" style="edgeStyle=orthogonalEdgeStyle;rounded=0;orthogonalLoop=1;jettySize=auto;html=1;exitX=1;exitY=0.5;exitDx=0;exitDy=0;entryX=0.75;entryY=0;entryDx=0;entryDy=0;endArrow=classic;endFill=1;" edge="1" parent="1" source="4X7WZ7r-OvsgaBfrFV06-123" target="4X7WZ7r-OvsgaBfrFV06-157">
          <mxGeometry relative="1" as="geometry" />
        </mxCell>
        <mxCell id="4X7WZ7r-OvsgaBfrFV06-123" value="P2S" style="rounded=0;whiteSpace=wrap;html=1;" vertex="1" parent="1">
          <mxGeometry x="960" y="1120" width="40" height="80" as="geometry" />
        </mxCell>
        <mxCell id="4X7WZ7r-OvsgaBfrFV06-124" value="64&lt;br&gt;COMPLEX" style="edgeStyle=orthogonalEdgeStyle;rounded=0;orthogonalLoop=1;jettySize=auto;html=1;exitX=0;exitY=0.5;exitDx=0;exitDy=0;entryX=1;entryY=0.5;entryDx=0;entryDy=0;" edge="1" parent="1" source="4X7WZ7r-OvsgaBfrFV06-125" target="4X7WZ7r-OvsgaBfrFV06-131">
          <mxGeometry relative="1" as="geometry" />
        </mxCell>
        <mxCell id="4X7WZ7r-OvsgaBfrFV06-125" value="IFFT" style="rounded=0;whiteSpace=wrap;html=1;" vertex="1" parent="1">
          <mxGeometry x="640" y="1240" width="80" height="80" as="geometry" />
        </mxCell>
        <mxCell id="4X7WZ7r-OvsgaBfrFV06-126" value="64 &lt;br&gt;COMPLEX" style="edgeStyle=none;rounded=0;orthogonalLoop=1;jettySize=auto;html=1;exitX=0;exitY=0.5;exitDx=0;exitDy=0;entryX=1;entryY=0.5;entryDx=0;entryDy=0;endArrow=classic;endFill=1;" edge="1" parent="1" source="4X7WZ7r-OvsgaBfrFV06-127" target="4X7WZ7r-OvsgaBfrFV06-133">
          <mxGeometry relative="1" as="geometry" />
        </mxCell>
        <mxCell id="4X7WZ7r-OvsgaBfrFV06-127" value="Pad" style="rounded=0;whiteSpace=wrap;html=1;" vertex="1" parent="1">
          <mxGeometry x="960" y="1240" width="40" height="80" as="geometry" />
        </mxCell>
        <mxCell id="4X7WZ7r-OvsgaBfrFV06-128" style="edgeStyle=orthogonalEdgeStyle;rounded=0;orthogonalLoop=1;jettySize=auto;html=1;entryX=1;entryY=0.75;entryDx=0;entryDy=0;" edge="1" parent="1" source="4X7WZ7r-OvsgaBfrFV06-129" target="4X7WZ7r-OvsgaBfrFV06-127">
          <mxGeometry relative="1" as="geometry" />
        </mxCell>
        <mxCell id="4X7WZ7r-OvsgaBfrFV06-129" value="0" style="text;html=1;align=center;verticalAlign=middle;resizable=0;points=[];autosize=1;strokeColor=none;fillColor=none;" vertex="1" parent="1">
          <mxGeometry x="1040" y="1285" width="30" height="30" as="geometry" />
        </mxCell>
        <mxCell id="4X7WZ7r-OvsgaBfrFV06-130" value="128&lt;br&gt;REAL" style="edgeStyle=none;rounded=0;orthogonalLoop=1;jettySize=auto;html=1;exitX=0;exitY=0.5;exitDx=0;exitDy=0;entryX=1;entryY=0.5;entryDx=0;entryDy=0;endArrow=classic;endFill=1;" edge="1" parent="1" source="4X7WZ7r-OvsgaBfrFV06-131" target="4X7WZ7r-OvsgaBfrFV06-135">
          <mxGeometry relative="1" as="geometry" />
        </mxCell>
        <mxCell id="4X7WZ7r-OvsgaBfrFV06-131" value="IFFT&lt;br&gt;Post" style="rounded=0;whiteSpace=wrap;html=1;" vertex="1" parent="1">
          <mxGeometry x="480" y="1240" width="80" height="80" as="geometry" />
        </mxCell>
        <mxCell id="4X7WZ7r-OvsgaBfrFV06-132" value="64&lt;br&gt;COMPLEX" style="edgeStyle=none;rounded=0;orthogonalLoop=1;jettySize=auto;html=1;exitX=0;exitY=0.5;exitDx=0;exitDy=0;entryX=1;entryY=0.5;entryDx=0;entryDy=0;endArrow=classic;endFill=1;" edge="1" parent="1" source="4X7WZ7r-OvsgaBfrFV06-133" target="4X7WZ7r-OvsgaBfrFV06-125">
          <mxGeometry relative="1" as="geometry" />
        </mxCell>
        <mxCell id="4X7WZ7r-OvsgaBfrFV06-133" value="IFFT&lt;br&gt;Pre" style="rounded=0;whiteSpace=wrap;html=1;" vertex="1" parent="1">
          <mxGeometry x="800" y="1240" width="80" height="80" as="geometry" />
        </mxCell>
        <mxCell id="4X7WZ7r-OvsgaBfrFV06-134" value="$$N_2/2+5$$" style="edgeStyle=orthogonalEdgeStyle;rounded=0;orthogonalLoop=1;jettySize=auto;html=1;exitX=0;exitY=0.5;exitDx=0;exitDy=0;entryX=0;entryY=0.5;entryDx=0;entryDy=0;endArrow=classic;endFill=1;" edge="1" parent="1" source="4X7WZ7r-OvsgaBfrFV06-135" target="4X7WZ7r-OvsgaBfrFV06-139">
          <mxGeometry relative="1" as="geometry" />
        </mxCell>
        <mxCell id="4X7WZ7r-OvsgaBfrFV06-135" value="Ex-&lt;br&gt;tract&lt;br&gt;&amp;amp;&lt;br&gt;+CP" style="rounded=0;whiteSpace=wrap;html=1;" vertex="1" parent="1">
          <mxGeometry x="360" y="1240" width="40" height="80" as="geometry" />
        </mxCell>
        <mxCell id="4X7WZ7r-OvsgaBfrFV06-136" value="64&lt;br&gt;COMPLEX" style="edgeStyle=none;rounded=0;orthogonalLoop=1;jettySize=auto;html=1;exitX=1;exitY=0.5;exitDx=0;exitDy=0;entryX=0;entryY=0.5;entryDx=0;entryDy=0;endArrow=classic;endFill=1;" edge="1" parent="1" source="4X7WZ7r-OvsgaBfrFV06-137" target="4X7WZ7r-OvsgaBfrFV06-141">
          <mxGeometry relative="1" as="geometry" />
        </mxCell>
        <mxCell id="4X7WZ7r-OvsgaBfrFV06-137" value="FFT" style="rounded=0;whiteSpace=wrap;html=1;" vertex="1" parent="1">
          <mxGeometry x="640" y="1360" width="80" height="80" as="geometry" />
        </mxCell>
        <mxCell id="4X7WZ7r-OvsgaBfrFV06-138" value="128&lt;br&gt;REAL" style="edgeStyle=none;rounded=0;orthogonalLoop=1;jettySize=auto;html=1;exitX=1;exitY=0.5;exitDx=0;exitDy=0;entryX=0;entryY=0.5;entryDx=0;entryDy=0;endArrow=classic;endFill=1;" edge="1" parent="1" source="4X7WZ7r-OvsgaBfrFV06-139" target="4X7WZ7r-OvsgaBfrFV06-143">
          <mxGeometry relative="1" as="geometry" />
        </mxCell>
        <mxCell id="4X7WZ7r-OvsgaBfrFV06-139" value="-CP&lt;br&gt;&amp;amp;&lt;br&gt;Pad" style="rounded=0;whiteSpace=wrap;html=1;" vertex="1" parent="1">
          <mxGeometry x="360" y="1360" width="40" height="80" as="geometry" />
        </mxCell>
        <mxCell id="4X7WZ7r-OvsgaBfrFV06-140" value="64&lt;br&gt;COMPLEX" style="edgeStyle=none;rounded=0;orthogonalLoop=1;jettySize=auto;html=1;exitX=1;exitY=0.5;exitDx=0;exitDy=0;entryX=0;entryY=0.5;entryDx=0;entryDy=0;endArrow=classic;endFill=1;" edge="1" parent="1" source="4X7WZ7r-OvsgaBfrFV06-141" target="4X7WZ7r-OvsgaBfrFV06-145">
          <mxGeometry relative="1" as="geometry" />
        </mxCell>
        <mxCell id="4X7WZ7r-OvsgaBfrFV06-141" value="FFT&lt;br&gt;Post" style="rounded=0;whiteSpace=wrap;html=1;" vertex="1" parent="1">
          <mxGeometry x="800" y="1360" width="80" height="80" as="geometry" />
        </mxCell>
        <mxCell id="4X7WZ7r-OvsgaBfrFV06-142" value="64&lt;br&gt;COMPLEX" style="edgeStyle=none;rounded=0;orthogonalLoop=1;jettySize=auto;html=1;exitX=1;exitY=0.5;exitDx=0;exitDy=0;entryX=0;entryY=0.5;entryDx=0;entryDy=0;endArrow=classic;endFill=1;" edge="1" parent="1" source="4X7WZ7r-OvsgaBfrFV06-143" target="4X7WZ7r-OvsgaBfrFV06-137">
          <mxGeometry relative="1" as="geometry" />
        </mxCell>
        <mxCell id="4X7WZ7r-OvsgaBfrFV06-143" value="FFT&lt;br&gt;Pre" style="rounded=0;whiteSpace=wrap;html=1;" vertex="1" parent="1">
          <mxGeometry x="480" y="1360" width="80" height="80" as="geometry" />
        </mxCell>
        <mxCell id="4X7WZ7r-OvsgaBfrFV06-144" style="edgeStyle=orthogonalEdgeStyle;rounded=0;orthogonalLoop=1;jettySize=auto;html=1;exitX=1;exitY=0.5;exitDx=0;exitDy=0;entryX=0.25;entryY=0;entryDx=0;entryDy=0;endArrow=classic;endFill=1;" edge="1" parent="1" source="4X7WZ7r-OvsgaBfrFV06-145" target="4X7WZ7r-OvsgaBfrFV06-157">
          <mxGeometry relative="1" as="geometry" />
        </mxCell>
        <mxCell id="4X7WZ7r-OvsgaBfrFV06-145" value="Ex-&lt;br&gt;tract" style="rounded=0;whiteSpace=wrap;html=1;" vertex="1" parent="1">
          <mxGeometry x="960" y="1360" width="40" height="80" as="geometry" />
        </mxCell>
        <mxCell id="4X7WZ7r-OvsgaBfrFV06-146" value="$$N_1/2$$" style="edgeStyle=orthogonalEdgeStyle;rounded=0;orthogonalLoop=1;jettySize=auto;html=1;exitX=0;exitY=0.5;exitDx=0;exitDy=0;entryX=1;entryY=0.5;entryDx=0;entryDy=0;endArrow=classic;endFill=1;" edge="1" parent="1" source="4X7WZ7r-OvsgaBfrFV06-147" target="4X7WZ7r-OvsgaBfrFV06-149">
          <mxGeometry relative="1" as="geometry" />
        </mxCell>
        <mxCell id="4X7WZ7r-OvsgaBfrFV06-147" value="S2P" style="rounded=0;whiteSpace=wrap;html=1;" vertex="1" parent="1">
          <mxGeometry x="960" y="1480" width="40" height="80" as="geometry" />
        </mxCell>
        <mxCell id="4X7WZ7r-OvsgaBfrFV06-148" value="$$N_1*2$$" style="edgeStyle=orthogonalEdgeStyle;rounded=0;orthogonalLoop=1;jettySize=auto;html=1;exitX=0;exitY=0.5;exitDx=0;exitDy=0;entryX=1;entryY=0.5;entryDx=0;entryDy=0;endArrow=classic;endFill=1;" edge="1" parent="1" source="4X7WZ7r-OvsgaBfrFV06-149" target="4X7WZ7r-OvsgaBfrFV06-151">
          <mxGeometry relative="1" as="geometry" />
        </mxCell>
        <mxCell id="4X7WZ7r-OvsgaBfrFV06-149" value="Qamdemod&lt;br&gt;with Bit &amp;amp; Power Allocation" style="rounded=0;whiteSpace=wrap;html=1;" vertex="1" parent="1">
          <mxGeometry x="800" y="1480" width="80" height="80" as="geometry" />
        </mxCell>
        <mxCell id="4X7WZ7r-OvsgaBfrFV06-150" value="$$N_1$$" style="edgeStyle=orthogonalEdgeStyle;rounded=0;orthogonalLoop=1;jettySize=auto;html=1;exitX=0;exitY=0.5;exitDx=0;exitDy=0;entryX=1;entryY=0.5;entryDx=0;entryDy=0;endArrow=classic;endFill=1;" edge="1" parent="1" source="4X7WZ7r-OvsgaBfrFV06-151" target="4X7WZ7r-OvsgaBfrFV06-153">
          <mxGeometry relative="1" as="geometry" />
        </mxCell>
        <mxCell id="4X7WZ7r-OvsgaBfrFV06-151" value="P2S" style="rounded=0;whiteSpace=wrap;html=1;" vertex="1" parent="1">
          <mxGeometry x="680" y="1480" width="40" height="80" as="geometry" />
        </mxCell>
        <mxCell id="4X7WZ7r-OvsgaBfrFV06-152" value="$$N_1$$" style="edgeStyle=orthogonalEdgeStyle;rounded=0;orthogonalLoop=1;jettySize=auto;html=1;exitX=0;exitY=0.5;exitDx=0;exitDy=0;entryX=1;entryY=0.5;entryDx=0;entryDy=0;endArrow=classic;endFill=1;" edge="1" parent="1" source="4X7WZ7r-OvsgaBfrFV06-153" target="4X7WZ7r-OvsgaBfrFV06-155">
          <mxGeometry relative="1" as="geometry" />
        </mxCell>
        <mxCell id="4X7WZ7r-OvsgaBfrFV06-153" value="Matrix&lt;br&gt;Deinterleave" style="rounded=0;whiteSpace=wrap;html=1;" vertex="1" parent="1">
          <mxGeometry x="520" y="1480" width="80" height="80" as="geometry" />
        </mxCell>
        <mxCell id="4X7WZ7r-OvsgaBfrFV06-154" style="edgeStyle=orthogonalEdgeStyle;rounded=0;orthogonalLoop=1;jettySize=auto;html=1;exitX=0;exitY=0.5;exitDx=0;exitDy=0;entryX=1;entryY=0.5;entryDx=0;entryDy=0;endArrow=classic;endFill=1;" edge="1" parent="1" source="4X7WZ7r-OvsgaBfrFV06-155" target="4X7WZ7r-OvsgaBfrFV06-159">
          <mxGeometry relative="1" as="geometry" />
        </mxCell>
        <mxCell id="4X7WZ7r-OvsgaBfrFV06-155" value="Vitdec" style="rounded=0;whiteSpace=wrap;html=1;" vertex="1" parent="1">
          <mxGeometry x="360" y="1480" width="80" height="80" as="geometry" />
        </mxCell>
        <mxCell id="4X7WZ7r-OvsgaBfrFV06-156" style="edgeStyle=orthogonalEdgeStyle;rounded=0;orthogonalLoop=1;jettySize=auto;html=1;exitX=0.5;exitY=1;exitDx=0;exitDy=0;entryX=1;entryY=0.5;entryDx=0;entryDy=0;endArrow=classic;endFill=1;" edge="1" parent="1" source="4X7WZ7r-OvsgaBfrFV06-157" target="4X7WZ7r-OvsgaBfrFV06-147">
          <mxGeometry relative="1" as="geometry" />
        </mxCell>
        <mxCell id="4X7WZ7r-OvsgaBfrFV06-157" value="Diff" style="rounded=0;whiteSpace=wrap;html=1;" vertex="1" parent="1">
          <mxGeometry x="1040" y="1420" width="40" height="80" as="geometry" />
        </mxCell>
        <mxCell id="4X7WZ7r-OvsgaBfrFV06-158" value="iter1" style="rounded=0;whiteSpace=wrap;html=1;" vertex="1" parent="1">
          <mxGeometry x="200" y="960" width="80" height="80" as="geometry" />
        </mxCell>
        <mxCell id="4X7WZ7r-OvsgaBfrFV06-159" value="iter2" style="rounded=0;whiteSpace=wrap;html=1;" vertex="1" parent="1">
          <mxGeometry x="200" y="1480" width="80" height="80" as="geometry" />
        </mxCell>
      </root>
    </mxGraphModel>
  </diagram>
</mxfile>
